<svg width="64" height="64" viewBox="0 0 64 64" fill="none" xmlns="http://www.w3.org/2000/svg">
<rect width="64" height="64" rx="10" fill="white"/>
<path d="M42.6043 27.1777L43.925 23.5708C44.2121 22.8145 43.6379 22 42.834 22H17.7988C13.7794 22 10.449 25.0252 10.047 29.0975L9.01347 38.7547C8.89863 39.6855 9.53025 40.5582 10.449 40.7909C11.4825 41.0236 13.1312 35.7005 14.5093 35.875L15.1 56.7311C15.1574 58.011 16.2484 59 17.5117 59H20.6667H24.8615C26.1247 59 27.1583 58.011 27.2731 56.7311L28.5364 30.3774C28.5364 29.0393 29.6273 27.9921 30.8906 27.9921H41.5133C42.0301 27.934 42.4321 27.6431 42.6043 27.1777Z" fill="black"/>
<path d="M22.5 20C26.6421 20 30 16.6421 30 12.5C30 8.35786 26.6421 5 22.5 5C18.3579 5 15 8.35786 15 12.5C15 16.6421 18.3579 20 22.5 20Z" fill="black"/>
<path d="M57.0548 16.7684C57.9197 15.5455 56.8225 13.9234 55.3677 14.1811L51.4524 14.8998C50.8178 15.0038 50.2241 14.7665 49.8282 14.2779L47.403 11.1616C46.4998 10.0161 44.6453 10.513 44.4358 11.9567L43.8937 15.868C43.7951 16.4891 43.3997 16.9915 42.798 17.2188L39.0479 18.554C37.6592 19.0582 37.52 21.0116 38.8805 21.6382L42.4467 23.3255C42.9785 23.5794 43.3909 24.1296 43.3707 24.7958L43.4963 28.7265C43.5671 30.2272 45.3316 30.8776 46.3697 29.8066L49.1174 26.956C49.5294 26.5153 50.2094 26.3331 50.7865 26.5088L54.5914 27.6036C56.0259 28.0121 57.2122 26.5049 56.5398 25.2315L54.6832 21.7646C54.3944 21.1813 54.4147 20.5151 54.7483 20.0293L57.0548 16.7684Z" fill="#EBBA00"/>
</svg>
